<svg width="1026" height="339" viewBox="0 0 1026 339" fill="none" xmlns="http://www.w3.org/2000/svg">
<path d="M436.779 107.968H407.279L436.279 233.968H463.779L484.279 156.468H485.279L506.279 233.968H534.279L563.279 107.968H532.779L517.779 189.968L495.779 107.968H473.779L452.279 189.968L436.779 107.968Z" fill="#3BB241" stroke="#3BB241"/>
<path fill-rule="evenodd" clip-rule="evenodd" d="M674.279 233.968H643.279L636.279 208.968H599.279L591.279 233.968H561.279L602.279 107.968H632.779L674.279 233.968ZM617.279 147.968H618.279L629.279 186.968H605.279L617.279 147.968Z" fill="#3BB241"/>
<path d="M726.279 233.968H698.279V189.968L656.279 107.968H687.279L712.279 162.968H713.279L738.279 107.968H769.279L726.279 189.968V233.968Z" fill="#3BB241" stroke="#3BB241"/>
<path d="M797 70L796.707 70.2929C796.254 70.7456 796 71.3597 796 72V271.586C796 272.491 796.36 273.36 797 274C797.64 274.64 798.509 275 799.414 275H844C845.5 275 847.065 277.707 847.5 281.5L848 288C848.164 290.666 848.267 292.185 848.5 295C848.733 297.815 848.429 298.7 850 300C851.805 301.494 854.125 301.406 856 300C856 300 890.5 275 894 275H895H896H897H1021.59C1022.49 275 1023.36 274.64 1024 274L1024.29 273.707C1024.75 273.254 1025 272.64 1025 272V72C1025 71.3597 1024.75 70.7456 1024.29 70.2929L1024 70L1023.85 69.8483C1023.31 69.3052 1022.57 69 1021.8 69H799C798.36 69 797.746 69.2544 797.293 69.7071L797 70Z" stroke="#3BB241" stroke-width="2"/>
<path d="M841 126.5C841 126.5 841 158 841 190C841 222 900 222 900 190C900 158 900 126.5 900 126.5" stroke="#3BB241" stroke-width="5"/>
<path d="M927 217V175M927 175C927 175 935 175 961.5 175C988 175 988 128 961.5 128C935 128 927 128 927 128V175Z" stroke="#3BB241" stroke-width="5"/>
<circle cx="177.487" cy="163.5" r="163.5" transform="rotate(90 177.487 163.5)" fill="url(#paint0_linear)"/>
<path d="M43.8073 225.248C3.73245 263.54 0.00109732 334.912 0.00109732 334.912C0.00109732 334.912 71.4234 334.427 111.546 296.136C151.669 257.845 168.983 210.936 150.256 191.388C131.531 171.792 83.8821 186.955 43.8073 225.248Z" fill="url(#paint1_linear)"/>
<g opacity="0.2">
<path opacity="0.2" d="M127.851 192.412C134.701 192.567 139.882 194.458 143.3 197.987C156.174 211.459 143.553 252.245 104.898 289.227C76.9725 315.91 31.3303 322.924 10.6801 324.755C13.4477 304.21 22.5287 258.935 50.4058 232.251C76.2252 207.533 106.63 191.929 127.851 192.412ZM128.069 182.831C105.028 182.308 72.4671 197.862 43.8062 225.295C3.73136 263.587 7.67224e-06 334.96 7.67224e-06 334.96C7.67224e-06 334.96 71.4223 334.475 111.545 296.184C151.668 257.893 168.981 210.983 150.255 191.435C144.92 185.755 137.266 183.04 128.069 182.831Z" fill="#424242"/>
</g>
<path d="M55.3734 239.313C30.1429 263.421 27.7802 308.322 27.7802 308.322C27.7802 308.322 72.743 308.002 97.9735 283.894C123.204 259.786 134.132 230.224 122.334 217.927C110.536 205.629 80.6529 215.158 55.3734 239.313Z" fill="url(#paint2_linear)"/>
<path d="M103.987 275.5L63.4872 233L30.1222 242.787C27.3796 243.592 24.5361 244 21.678 244H19.4872C12.182 242.993 8.36229 240.885 5.11825 234.763C3.50295 231.715 2.98721 228.23 2.98721 224.781C2.98721 220.967 3.77407 217.174 5.30493 213.681C35.9914 143.676 57.1952 112.867 115.987 125C173.608 59.3688 210.774 42.3793 282.279 32.4681L295.386 31.3499C298.107 31.1177 300.877 31.1694 303.494 31.95C308.993 33.5899 311.541 36.1375 313.008 40.7932C313.871 43.5353 313.987 46.4455 313.987 49.3204V50.3458C313.987 55.7729 313.568 61.2103 312.595 66.5495C300.299 134.023 277.254 169.482 214.487 224C224.602 282.546 197.835 304.642 121.379 332.25C118.166 333.41 114.741 334 111.325 334H110.511C108.5 334 106.477 333.854 104.55 333.28C99.1432 331.67 96.0042 328.752 93.0595 321.041C92.2975 319.046 91.9872 316.912 91.9872 314.776C91.9872 312.606 92.337 310.451 93.0231 308.392L103.987 275.5Z" fill="#3BB241"/>
<path d="M89.9873 243L68.4873 221L119.586 140.216C120.518 138.741 121.598 137.327 122.777 136.04C187.217 65.6708 228.976 44.0307 297.063 43.5078C297.956 43.501 298.819 43.8975 299.391 44.5842L300.987 46.5L89.9873 243Z" fill="white"/>
<path d="M300.987 46.5L89.9872 243L116.487 270L199.172 219.117C200.381 218.373 201.553 217.531 202.641 216.62C271.72 158.796 296.875 111.965 301.438 47.7102C301.469 47.2621 301.305 46.8177 300.987 46.5Z" fill="#ECECEC"/>
<circle cx="183.488" cy="157.5" r="16.5" fill="#3BB241"/>
<circle cx="217.487" cy="127.5" r="12.5" fill="#3BB241"/>
<circle cx="246.487" cy="99.5" r="8.5" fill="#3BB241"/>
<path d="M201.987 222L119.104 272.623C118.706 272.867 118.405 273.242 118.254 273.683L104.987 312.5C103.713 316.998 104.625 318.794 108.487 321C110.625 321.871 111.971 321.737 114.487 321C179.503 291.067 213.461 273.579 201.987 222Z" fill="#ECECEC" stroke="#ECECEC"/>
<path d="M117.088 136.773L64.3426 218.322C64.0891 218.714 63.7065 219.005 63.261 219.145L24.1151 231.405C19.586 232.563 17.8143 231.605 15.7083 227.687C14.8925 225.527 15.0612 224.186 15.8631 221.689C47.4637 157.468 65.8218 123.972 117.088 136.773Z" fill="#ECECEC" stroke="#ECECEC"/>
<defs>
<linearGradient id="paint0_linear" x1="177.487" y1="0" x2="177.487" y2="327" gradientUnits="userSpaceOnUse">
<stop stop-color="#2D8431"/>
<stop offset="1" stop-color="#3BB241"/>
</linearGradient>
<linearGradient id="paint1_linear" x1="156.665" y1="260.97" x2="1.73388" y2="257.448" gradientUnits="userSpaceOnUse">
<stop stop-color="#FF6D00"/>
<stop offset="0.2487" stop-color="#FF9B00"/>
<stop offset="0.5135" stop-color="#FFC600"/>
<stop offset="0.721" stop-color="#FFE000"/>
<stop offset="0.8439" stop-color="#FFEA00"/>
</linearGradient>
<linearGradient id="paint2_linear" x1="104.707" y1="234.043" x2="22.5938" y2="314.85" gradientUnits="userSpaceOnUse">
<stop offset="0.00444748" stop-color="#C62828"/>
<stop offset="0.2711" stop-color="#D75327"/>
<stop offset="0.5983" stop-color="#E98126"/>
<stop offset="0.8504" stop-color="#F59D25"/>
<stop offset="0.9953" stop-color="#F9A825"/>
</linearGradient>
</defs>
</svg>
